<mxfile host="app.diagrams.net" modified="2023-10-12T03:41:44.770Z" agent="Mozilla/5.0 (Windows NT 10.0; Win64; x64) AppleWebKit/537.36 (KHTML, like Gecko) Chrome/117.0.0.0 Safari/537.36" etag="beUn3ptNWr-ppRecvozG" version="22.0.4" type="github">
  <diagram name="Page-1" id="SIOzmLYSWbaGB9gG3hEm">
    <mxGraphModel dx="1050" dy="542" grid="1" gridSize="10" guides="1" tooltips="1" connect="1" arrows="1" fold="1" page="1" pageScale="1" pageWidth="850" pageHeight="1100" math="0" shadow="0">
      <root>
        <mxCell id="0" />
        <mxCell id="1" parent="0" />
        <mxCell id="yqArIjEVft7jWTdGM_lD-30" style="edgeStyle=orthogonalEdgeStyle;rounded=0;orthogonalLoop=1;jettySize=auto;html=1;entryX=0.5;entryY=1;entryDx=0;entryDy=0;endArrow=none;endFill=0;" edge="1" parent="1" source="yqArIjEVft7jWTdGM_lD-21" target="yqArIjEVft7jWTdGM_lD-29">
          <mxGeometry relative="1" as="geometry" />
        </mxCell>
        <mxCell id="yqArIjEVft7jWTdGM_lD-31" value="Taxes, Government purchase" style="edgeLabel;html=1;align=center;verticalAlign=middle;resizable=0;points=[];" vertex="1" connectable="0" parent="yqArIjEVft7jWTdGM_lD-30">
          <mxGeometry x="0.24" y="1" relative="1" as="geometry">
            <mxPoint x="1" y="13" as="offset" />
          </mxGeometry>
        </mxCell>
        <mxCell id="yqArIjEVft7jWTdGM_lD-32" style="edgeStyle=orthogonalEdgeStyle;rounded=0;orthogonalLoop=1;jettySize=auto;html=1;entryX=0;entryY=0.5;entryDx=0;entryDy=0;endArrow=none;endFill=0;dashed=1;exitX=1;exitY=0.5;exitDx=0;exitDy=0;" edge="1" parent="1" source="yqArIjEVft7jWTdGM_lD-21" target="yqArIjEVft7jWTdGM_lD-25">
          <mxGeometry relative="1" as="geometry" />
        </mxCell>
        <mxCell id="yqArIjEVft7jWTdGM_lD-33" value="Credit" style="edgeLabel;html=1;align=center;verticalAlign=middle;resizable=0;points=[];" vertex="1" connectable="0" parent="yqArIjEVft7jWTdGM_lD-32">
          <mxGeometry x="0.3644" y="-2" relative="1" as="geometry">
            <mxPoint y="-2" as="offset" />
          </mxGeometry>
        </mxCell>
        <mxCell id="yqArIjEVft7jWTdGM_lD-34" style="edgeStyle=orthogonalEdgeStyle;rounded=0;orthogonalLoop=1;jettySize=auto;html=1;endArrow=none;endFill=0;entryX=0;entryY=0.5;entryDx=0;entryDy=0;" edge="1" parent="1" source="yqArIjEVft7jWTdGM_lD-21" target="yqArIjEVft7jWTdGM_lD-24">
          <mxGeometry relative="1" as="geometry">
            <Array as="points">
              <mxPoint x="540" y="152" />
              <mxPoint x="540" y="42" />
            </Array>
          </mxGeometry>
        </mxCell>
        <mxCell id="yqArIjEVft7jWTdGM_lD-35" value="Loans" style="edgeLabel;html=1;align=center;verticalAlign=middle;resizable=0;points=[];" vertex="1" connectable="0" parent="yqArIjEVft7jWTdGM_lD-34">
          <mxGeometry x="-0.0033" y="-2" relative="1" as="geometry">
            <mxPoint x="5" y="-2" as="offset" />
          </mxGeometry>
        </mxCell>
        <mxCell id="yqArIjEVft7jWTdGM_lD-38" style="edgeStyle=orthogonalEdgeStyle;rounded=0;orthogonalLoop=1;jettySize=auto;html=1;endArrow=none;endFill=0;" edge="1" parent="1" source="yqArIjEVft7jWTdGM_lD-21" target="yqArIjEVft7jWTdGM_lD-22">
          <mxGeometry relative="1" as="geometry" />
        </mxCell>
        <mxCell id="yqArIjEVft7jWTdGM_lD-39" value="Labour Supply, Wages,&lt;br style=&quot;border-color: var(--border-color);&quot;&gt;Consumption,&lt;br style=&quot;border-color: var(--border-color);&quot;&gt;Dividends &amp;amp; Wealth" style="edgeLabel;html=1;align=center;verticalAlign=middle;resizable=0;points=[];" vertex="1" connectable="0" parent="yqArIjEVft7jWTdGM_lD-38">
          <mxGeometry x="0.1911" y="-1" relative="1" as="geometry">
            <mxPoint as="offset" />
          </mxGeometry>
        </mxCell>
        <mxCell id="yqArIjEVft7jWTdGM_lD-40" style="edgeStyle=orthogonalEdgeStyle;rounded=0;orthogonalLoop=1;jettySize=auto;html=1;endArrow=none;endFill=0;entryX=0;entryY=0.5;entryDx=0;entryDy=0;" edge="1" parent="1" source="yqArIjEVft7jWTdGM_lD-21" target="yqArIjEVft7jWTdGM_lD-23">
          <mxGeometry relative="1" as="geometry">
            <Array as="points">
              <mxPoint x="540" y="192" />
              <mxPoint x="540" y="312" />
            </Array>
          </mxGeometry>
        </mxCell>
        <mxCell id="yqArIjEVft7jWTdGM_lD-41" value="Consumption &amp;amp; Wealth" style="edgeLabel;html=1;align=center;verticalAlign=middle;resizable=0;points=[];" vertex="1" connectable="0" parent="yqArIjEVft7jWTdGM_lD-40">
          <mxGeometry x="0.7252" y="3" relative="1" as="geometry">
            <mxPoint x="-13" y="-57" as="offset" />
          </mxGeometry>
        </mxCell>
        <mxCell id="yqArIjEVft7jWTdGM_lD-42" style="edgeStyle=orthogonalEdgeStyle;rounded=0;orthogonalLoop=1;jettySize=auto;html=1;entryX=1;entryY=0.5;entryDx=0;entryDy=0;" edge="1" parent="1" source="yqArIjEVft7jWTdGM_lD-21" target="yqArIjEVft7jWTdGM_lD-28">
          <mxGeometry relative="1" as="geometry">
            <Array as="points">
              <mxPoint x="240" y="162" />
              <mxPoint x="240" y="42" />
            </Array>
          </mxGeometry>
        </mxCell>
        <mxCell id="yqArIjEVft7jWTdGM_lD-43" value="Constributions (FF)" style="edgeLabel;html=1;align=center;verticalAlign=middle;resizable=0;points=[];" vertex="1" connectable="0" parent="yqArIjEVft7jWTdGM_lD-42">
          <mxGeometry x="-0.0027" y="-1" relative="1" as="geometry">
            <mxPoint as="offset" />
          </mxGeometry>
        </mxCell>
        <mxCell id="yqArIjEVft7jWTdGM_lD-21" value="Firms" style="rounded=1;whiteSpace=wrap;html=1;fillColor=#dae8fc;strokeColor=#6c8ebf;fontColor=#003366;fontStyle=1" vertex="1" parent="1">
          <mxGeometry x="330" y="142" width="120" height="60" as="geometry" />
        </mxCell>
        <mxCell id="yqArIjEVft7jWTdGM_lD-22" value="Young Households" style="rounded=1;whiteSpace=wrap;html=1;fillColor=#d5e8d4;strokeColor=#82b366;fontColor=#006633;fontStyle=1" vertex="1" parent="1">
          <mxGeometry x="330" y="292" width="120" height="60" as="geometry" />
        </mxCell>
        <mxCell id="yqArIjEVft7jWTdGM_lD-23" value="Retired Households" style="rounded=1;whiteSpace=wrap;html=1;fillColor=#d5e8d4;strokeColor=#82b366;fontColor=#006633;fontStyle=1" vertex="1" parent="1">
          <mxGeometry x="600" y="282" width="120" height="60" as="geometry" />
        </mxCell>
        <mxCell id="yqArIjEVft7jWTdGM_lD-24" value="Banks" style="rounded=1;whiteSpace=wrap;html=1;fillColor=#d5e8d4;strokeColor=#82b366;fontColor=#006633;fontStyle=1" vertex="1" parent="1">
          <mxGeometry x="600" y="12" width="120" height="60" as="geometry" />
        </mxCell>
        <mxCell id="yqArIjEVft7jWTdGM_lD-25" value="Credit Market" style="rounded=1;whiteSpace=wrap;html=1;fillColor=#fff2cc;strokeColor=#d6b656;fontColor=#666600;fontStyle=1" vertex="1" parent="1">
          <mxGeometry x="600" y="142" width="120" height="60" as="geometry" />
        </mxCell>
        <mxCell id="yqArIjEVft7jWTdGM_lD-36" style="edgeStyle=orthogonalEdgeStyle;rounded=0;orthogonalLoop=1;jettySize=auto;html=1;entryX=0;entryY=0.5;entryDx=0;entryDy=0;endArrow=none;endFill=0;" edge="1" parent="1" source="yqArIjEVft7jWTdGM_lD-26" target="yqArIjEVft7jWTdGM_lD-21">
          <mxGeometry relative="1" as="geometry">
            <Array as="points">
              <mxPoint x="240" y="312" />
              <mxPoint x="240" y="192" />
              <mxPoint x="330" y="192" />
            </Array>
          </mxGeometry>
        </mxCell>
        <mxCell id="yqArIjEVft7jWTdGM_lD-37" value="Export, Import, Dividends" style="edgeLabel;html=1;align=center;verticalAlign=middle;resizable=0;points=[];" vertex="1" connectable="0" parent="yqArIjEVft7jWTdGM_lD-36">
          <mxGeometry x="-0.0533" relative="1" as="geometry">
            <mxPoint y="17" as="offset" />
          </mxGeometry>
        </mxCell>
        <mxCell id="yqArIjEVft7jWTdGM_lD-26" value="Foreign Economy" style="rounded=1;whiteSpace=wrap;html=1;fillColor=#d5e8d4;strokeColor=#82b366;fontColor=#006633;fontStyle=1" vertex="1" parent="1">
          <mxGeometry x="60" y="282" width="120" height="60" as="geometry" />
        </mxCell>
        <mxCell id="yqArIjEVft7jWTdGM_lD-28" value="Pension Funds" style="rounded=1;whiteSpace=wrap;html=1;fillColor=#d5e8d4;strokeColor=#82b366;fontColor=#006633;fontStyle=1" vertex="1" parent="1">
          <mxGeometry x="40" y="12" width="120" height="60" as="geometry" />
        </mxCell>
        <mxCell id="yqArIjEVft7jWTdGM_lD-29" value="Government" style="rounded=1;whiteSpace=wrap;html=1;fillColor=#d5e8d4;strokeColor=#82b366;fontColor=#006633;fontStyle=1" vertex="1" parent="1">
          <mxGeometry x="330" y="12" width="120" height="60" as="geometry" />
        </mxCell>
        <mxCell id="yqArIjEVft7jWTdGM_lD-45" style="edgeStyle=orthogonalEdgeStyle;rounded=0;orthogonalLoop=1;jettySize=auto;html=1;endArrow=none;endFill=0;dashed=1;entryX=0;entryY=0.5;entryDx=0;entryDy=0;" edge="1" parent="1" source="yqArIjEVft7jWTdGM_lD-44" target="yqArIjEVft7jWTdGM_lD-21">
          <mxGeometry relative="1" as="geometry">
            <mxPoint x="330" y="182" as="targetPoint" />
            <Array as="points">
              <mxPoint x="280" y="172" />
              <mxPoint x="280" y="172" />
            </Array>
          </mxGeometry>
        </mxCell>
        <mxCell id="yqArIjEVft7jWTdGM_lD-46" value="Construction/Housing" style="edgeLabel;html=1;align=center;verticalAlign=middle;resizable=0;points=[];" vertex="1" connectable="0" parent="yqArIjEVft7jWTdGM_lD-45">
          <mxGeometry x="-0.4745" y="2" relative="1" as="geometry">
            <mxPoint x="25" y="2" as="offset" />
          </mxGeometry>
        </mxCell>
        <mxCell id="yqArIjEVft7jWTdGM_lD-44" value="Housing Market" style="rounded=1;whiteSpace=wrap;html=1;fillColor=#fff2cc;strokeColor=#d6b656;fontColor=#666600;fontStyle=1" vertex="1" parent="1">
          <mxGeometry x="40" y="142" width="120" height="60" as="geometry" />
        </mxCell>
      </root>
    </mxGraphModel>
  </diagram>
</mxfile>
